<svg xmlns="http://www.w3.org/2000/svg" viewBox="0 0 100 100" fill="none">
  <rect width="100" height="100" rx="16" fill="#0d9488" fill-opacity="0.1"/>
  <!-- Chat bubble with sparkle - represents LLM conversation -->
  <path d="M20 35C20 28 26 22 35 22H65C74 22 80 28 80 35V55C80 62 74 68 65 68H40L28 80V68H35C26 68 20 62 20 55V35Z" stroke="#0d9488" stroke-width="4" stroke-linecap="round" stroke-linejoin="round"/>
  <!-- Typing dots -->
  <circle cx="38" cy="45" r="5" fill="#059669"/>
  <circle cx="50" cy="45" r="5" fill="#059669"/>
  <circle cx="62" cy="45" r="5" fill="#059669"/>
  <!-- Sparkle/magic -->
  <path d="M72 18L74 24L80 22L77 28L82 30L77 32L80 38L74 36L72 42L70 36L64 38L67 32L62 30L67 28L64 22L70 24L72 18Z" fill="#059669"/>
</svg>
