<svg xmlns="http://www.w3.org/2000/svg" viewBox="0 0 100 100" fill="none">
  <rect width="100" height="100" rx="16" fill="#0d9488" fill-opacity="0.1"/>
  <!-- Database cylinder: three stacked discs, the classic storage mark -->
  <ellipse cx="50" cy="28" rx="26" ry="9" stroke="#0d9488" stroke-width="3.5"/>
  <path d="M24 28V50C24 55 36 59 50 59C64 59 76 55 76 50V28" stroke="#0d9488" stroke-width="3.5"/>
  <path d="M24 50V72C24 77 36 81 50 81C64 81 76 77 76 72V50" stroke="#059669" stroke-width="3.5"/>
  <path d="M24 72C24 77 36 81 50 81C64 81 76 77 76 72" stroke="#059669" stroke-width="3.5"/>
  <ellipse cx="50" cy="50" rx="26" ry="9" stroke="#0d9488" stroke-width="3.5"/>
  <ellipse cx="50" cy="72" rx="26" ry="9" stroke="#059669" stroke-width="3.5"/>
</svg>
